<?xml version="1.0" encoding="utf-8"?>
<!-- Generator: Adobe Illustrator 26.3.1, SVG Export Plug-In . SVG Version: 6.00 Build 0)  -->
<svg version="1.1" id="Capa_1" xmlns="http://www.w3.org/2000/svg" x="0px"
	 y="0px"
	 viewBox="0 0 207 500" style="enable-background:new 0 0 207 500;" xml:space="preserve">
<style type="text/css">
	.st0{fill:#020203;}
	.st1{fill:#FFFFFF;}
</style>
	<g>
	<g>
		
			<rect x="-61.5" y="142.2" transform="matrix(0.9773 -0.2119 0.2119 0.9773 -39.9985 12.5192)" class="st0"
				  width="199.8" height="101.4"/>
	</g>
		<g>
		<path class="st1" d="M-44.7,180.7l18.5-4l11.3,37.6l2,9.2l1.5-0.3l-2-9.2l-5.3-38.9l18.2-3.9L12,228.9l-10.4,2.3l-9-41.5l-0.9-4.7
			l-1.4,0.3l0.9,4.7l5.4,42.2l-13.4,2.9l-12.6-40.7l-1.1-4.7l-1.4,0.3l1.1,4.7l9,41.5l-10.4,2.3L-44.7,180.7z"/>
			<path class="st1" d="M6.2,169.7l10.4-2.3l12.5,57.7l-10.4,2.3L6.2,169.7z"/>
			<path class="st1" d="M23.4,166l19.6-4.3l2.1,9.5l-9.2,2l3.1,14.3l8.3-1.8l2,9.2l-8.3,1.8l3.3,15.2l9.2-2l2.1,9.5l-19.6,4.3
			L23.4,166z"/>
			<path class="st1" d="M48.9,160.4l14.1-3.1c7.7-1.7,13.9,2,15.4,9.1l7.4,34c1.5,7.1-2.5,13-10.3,14.7l-14.1,3.1L48.9,160.4z
			 M61.3,167.7l8.4,38.7l3.1-0.7c1.9-0.4,2.9-1.8,2.5-3.7l-7.1-32.6c-0.4-1.9-1.9-2.8-3.8-2.4L61.3,167.7z"/>
			<path class="st1" d="M92,199.4l-7.5-34.7c-1.6-7.4,2.7-13.6,10.8-15.4s14.6,2.1,16.2,9.5l7.5,34.7c1.6,7.5-2.7,13.7-10.8,15.5
			S93.7,206.9,92,199.4z M108.7,195.8l-7.5-34.6c-0.4-1.9-1.9-2.8-3.8-2.4s-2.9,1.8-2.5,3.7l7.5,34.6c0.4,1.9,1.9,2.8,3.8,2.4
			C108.1,199.1,109.1,197.7,108.7,195.8z"/>
	</g>
		<g>
		
			<rect x="33.6" y="235.7" transform="matrix(0.9999 -1.306139e-02 1.306139e-02 0.9999 -3.7311 1.5925)"
				  class="st0" width="173" height="101.4"/>
	</g>
		<g>
		<path class="st1" d="M54.4,257.8l20.1-0.3l0.1,9.7l-9.4,0.1l0.2,14.7l8.5-0.1l0.1,9.4l-8.5,0.1l0.2,15.5l9.4-0.1l0.1,9.7
			l-20.1,0.3L54.4,257.8z M63,246.4l11.6-0.2l-5.5,8.8l-10.3,0.1L63,246.4z"/>
			<path class="st1" d="M85.9,286L79,257.5l11.4-0.1l3.4,18.4l0,3.6l1.4,0l0-3.6l2.9-18.5l10.9-0.1l-6.2,29.2l7,29.9l-11.3,0.1
			l-3.5-18.8l-0.1-4.4l-1.4,0l0.1,4.4l-3.1,18.9l-10.9,0.1L85.9,286z"/>
			<path class="st1" d="M114,257l10.6-0.1l0.8,59l-10.6,0.1L114,257z"/>
			<path class="st1"
				  d="M136.1,266.4l-6.1,0.1l-0.1-9.7l22.8-0.3l0.1,9.7l-6.1,0.1l0.6,49.3l-10.6,0.1L136.1,266.4z"/>
			<path class="st1" d="M157.9,303.7l-0.5-35.5c-0.1-7.6,5.4-12.8,13.7-12.9c8.3-0.1,13.9,5,14,12.6l0.5,35.5
			c0.1,7.7-5.4,12.9-13.7,13C163.7,316.4,158,311.3,157.9,303.7z M175,303.4l-0.5-35.4c0-1.9-1.3-3.1-3.2-3.1
			c-1.9,0-3.2,1.2-3.2,3.2l0.5,35.4c0,1.9,1.3,3.1,3.2,3.1C173.7,306.6,175,305.4,175,303.4z"/>
	</g>
		<circle class="st0" cx="145.6" cy="206.4" r="40.2"/>
		<g>
		<path class="st1" d="M132.8,187.4l-11.9,29.9l8.3,1.8l2.5-7l5.3,1.1l-0.5,7.4l8.3,1.8l1.6-32.2L132.8,187.4z M133.7,206.3
			l3.8-10.7l0.5,0.1l-0.7,11.4L133.7,206.3z"/>
			<polygon class="st1"
					 points="157.3,218.9 162.7,193.8 154,192 147.3,223.1 150.4,223.7 150.4,223.7 163.7,226.6 165,220.6 		"/>
	</g>
</g>
	<g>
	<g>
		
			<rect x="-112.1" y="3.8" transform="matrix(0.9968 8.045963e-02 -8.045963e-02 0.9968 4.3438 1.158)"
				  class="st1" width="199.8" height="101.4"/>
	</g>
		<g>
		<path class="st0" d="M-88.2,18.7l18.9,1.5l-0.1,39.2l-0.8,9.3l1.5,0.1l0.8-9.3l6.2-38.8l18.6,1.5l-4.7,58.8l-10.6-0.9l3.4-42.3
			l0.5-4.8l-1.4-0.1l-0.6,4.8l-7,42l-13.6-1.1l-0.3-42.6l0.3-4.8l-1.4-0.1l-0.3,4.8l-3.4,42.3L-93,77.6L-88.2,18.7z"/>
			<path class="st0" d="M-36.3,22.9l10.6,0.9l-4.7,58.8L-41,81.8L-36.3,22.9z"/>
			<path class="st0" d="M-18.8,24.3l20,1.6l-0.8,9.7L-9,34.9l-1.2,14.6l8.5,0.7l-0.8,9.4l-8.5-0.7l-1.2,15.5l9.4,0.8l-0.8,9.7
			l-20-1.6L-18.8,24.3z"/>
			<path class="st0" d="M7.2,26.4l14.4,1.2c7.9,0.6,12.7,5.9,12.1,13.2l-2.8,34.6c-0.6,7.2-6.2,11.7-14.1,11L2.5,85.3L7.2,26.4z
			 M17,37l-3.2,39.5l3.1,0.3c1.9,0.2,3.3-0.9,3.4-2.8l2.7-33.3c0.2-1.9-1-3.2-2.9-3.4L17,37z"/>
			<path class="st0" d="M37.2,76.2l2.9-35.4c0.6-7.6,6.6-12.2,14.8-11.6s13.4,6.2,12.8,13.8l-2.9,35.4c-0.6,7.6-6.6,12.3-14.8,11.7
			C41.7,89.5,36.6,83.9,37.2,76.2z M54.2,77.6l2.8-35.3c0.2-1.9-1-3.2-2.9-3.4c-1.9-0.2-3.3,0.9-3.4,2.9l-2.8,35.3
			c-0.2,1.9,1,3.2,2.9,3.4S54.1,79.5,54.2,77.6z"/>
	</g>
		<g>
		
			<rect x="-47.7" y="116.9" transform="matrix(0.9608 0.2773 -0.2773 0.9608 48.0089 -4.1923)" class="st1"
				  width="173" height="101.4"/>
	</g>
		<g>
		<path class="st0" d="M-15.7,121.2l19.3,5.6l-2.7,9.3l-9.1-2.6l-4.1,14.1l8.2,2.4l-2.6,9.1l-8.2-2.4l-4.3,14.9l9.1,2.6l-2.7,9.3
			l-19.3-5.6L-15.7,121.2z M-4.2,112.8L7,116l-7.8,6.9l-9.9-2.9L-4.2,112.8z"/>
			<path class="st0" d="M6.3,157.3L7.9,128l10.9,3.2l-2.1,18.6l-1,3.5l1.4,0.4l1-3.5l8.1-16.9l10.5,3l-14.4,26.1l-2,30.6l-10.9-3.1
			l2.1-19.1l1.2-4.2l-1.4-0.4l-1.2,4.2l-8.5,17.2l-10.5-3L6.3,157.3z"/>
			<path class="st0" d="M41.6,137.7l10.2,2.9l-16.4,56.7l-10.2-2.9L41.6,137.7z"/>
			<path class="st0" d="M60,153.1l-5.8-1.7l2.7-9.3l21.9,6.3l-2.7,9.3l-5.8-1.7l-13.7,47.4l-10.2-2.9L60,153.1z"/>
			<path class="st0" d="M70.1,195.1l9.8-34.1c2.1-7.3,8.9-10.7,16.8-8.4c7.9,2.3,11.9,8.8,9.8,16.1l-9.8,34.1
			c-2.1,7.4-8.9,10.8-16.8,8.5S68,202.5,70.1,195.1z M86.4,199.8l9.8-34c0.5-1.9-0.4-3.3-2.2-3.9s-3.4,0.2-3.9,2.1l-9.8,34
			c-0.5,1.9,0.3,3.3,2.2,3.9C84.4,202.5,85.9,201.7,86.4,199.8z"/>
	</g>
		<circle class="st1" cx="86.5" cy="98.5" r="40.2"/>
		<g>
		<path class="st0" d="M79.7,76.6l-20.1,25.2l7.5,4.1l4.4-6l4.7,2.6l-2.6,7l7.5,4.1l10.8-30.3L79.7,76.6z M75.1,95l6.8-9.2l0.5,0.3
			l-4,10.7L75.1,95z"/>
			<polygon class="st0"
					 points="94,113.8 106.4,91.4 98.7,87.1 83.3,114.9 86,116.4 86,116.4 98,123 100.9,117.6 		"/>
	</g>
</g>
	<g>
	<g>
		
			<rect x="-135.1" y="303.4" transform="matrix(0.8928 -0.4505 0.4505 0.8928 -163.3257 22.0945)" class="st1"
				  width="199.8" height="101.4"/>
	</g>
		<g>
		<path class="st0" d="M-118.8,363.2l16.9-8.5l20.3,33.6l4.2,8.4l1.4-0.7l-4.2-8.4l-14.9-36.3l16.6-8.4l26.6,52.7l-9.5,4.8
			l-19.1-37.9l-2.1-4.3l-1.3,0.6l2,4.4l15.9,39.5l-12.2,6.2l-22.4-36.2l-2.2-4.3l-1.3,0.6l2.2,4.3l19.1,37.9l-9.5,4.8L-118.8,363.2z
			"/>
			<path class="st0" d="M-72.2,339.7l9.5-4.8l26.6,52.7l-9.5,4.8L-72.2,339.7z"/>
			<path class="st0" d="M-56.6,331.8l17.9-9l4.4,8.7l-8.4,4.3l6.6,13.1l7.6-3.8l4.3,8.4l-7.6,3.8l7,13.9l8.4-4.3l4.4,8.7l-17.9,9
			L-56.6,331.8z"/>
			<path class="st0" d="M-33.3,320.1l12.9-6.5c7.1-3.6,14-1.6,17.2,4.9l15.7,31c3.3,6.5,0.8,13.2-6.3,16.8l-12.9,6.5L-33.3,320.1z
			 M-19.4,323.9l17.9,35.4l2.8-1.4c1.7-0.9,2.3-2.5,1.5-4.2l-15-29.8c-0.9-1.7-2.5-2.2-4.3-1.3L-19.4,323.9z"/>
			<path class="st0" d="M18.3,346.9l-16-31.7c-3.4-6.8-0.8-13.9,6.6-17.6s14.7-1.6,18.1,5.1l16,31.7c3.5,6.9,0.8,14-6.6,17.7
			S21.7,353.8,18.3,346.9z M33.5,339.3l-16-31.6c-0.9-1.7-2.5-2.2-4.3-1.3c-1.7,0.9-2.3,2.5-1.5,4.2l16,31.6
			c0.9,1.7,2.5,2.2,4.3,1.3C33.8,342.6,34.4,341,33.5,339.3z"/>
	</g>
		<g>
		
			<rect x="-19.2" y="373.4" transform="matrix(0.9646 -0.2638 0.2638 0.9646 -109.5046 32.7649)" class="st1"
				  width="173" height="101.4"/>
	</g>
		<g>
		<path class="st0" d="M-3.5,412.9l19.4-5.3l2.6,9.4l-9.1,2.5l3.9,14.2l8.2-2.2l2.5,9.1l-8.2,2.2l4.1,15l9.1-2.5l2.6,9.4l-19.4,5.3
			L-3.5,412.9z M2,399.7l11.2-3.1l-3.1,9.9l-9.9,2.7L2,399.7z"/>
			<path class="st0" d="M34.1,432.3l-13.8-25.9l11-3l7.9,17l1,3.5l1.4-0.4l-1-3.5l-1.9-18.6l10.5-2.9l1.3,29.8l14.2,27.1l-10.9,3
			l-8.2-17.4l-1.2-4.2l-1.4,0.4l1.2,4.2l1.7,19.1l-10.5,2.9L34.1,432.3z"/>
			<path class="st0" d="M54,397.2l10.2-2.8l15.6,56.9l-10.2,2.8L54,397.2z"/>
			<path class="st0" d="M77.7,400.7l-5.9,1.6l-2.6-9.4l22-6l2.6,9.4l-5.9,1.6l13,47.6l-10.2,2.8L77.7,400.7z"/>
			<path class="st0" d="M108.2,431.3l-9.4-34.2c-2-7.3,2-13.8,10-15.9c8-2.2,14.7,1.3,16.7,8.6l9.4,34.2c2,7.4-2,13.8-10,16
			C117,442.2,110.3,438.7,108.2,431.3z M124.7,426.8l-9.3-34.2c-0.5-1.9-2-2.7-3.9-2.2c-1.9,0.5-2.8,2-2.3,3.9l9.3,34.2
			c0.5,1.9,2,2.7,3.9,2.2S125.2,428.7,124.7,426.8z"/>
	</g>
		<circle class="st1" cx="71.9" cy="340.3" r="40.2"/>
		<g>
		<path class="st0" d="M54.7,325.1l-4,32l8.5-0.4l0.6-7.4l5.4-0.2l1.4,7.3l8.5-0.4l-6.6-31.5L54.7,325.1z M60.4,343.2l1-11.4l0.5,0
			l2.2,11.2L60.4,343.2z"/>
			<polygon class="st0"
					 points="86.3,349.4 85.2,323.8 76.4,324.2 77.7,355.9 80.9,355.8 80.9,355.8 94.5,355.2 94.2,349.1 		"/>
	</g>
</g>
</svg>
