<?xml version="1.0" encoding="utf-8"?>
<!-- Generator: Adobe Illustrator 26.3.1, SVG Export Plug-In . SVG Version: 6.00 Build 0)  -->
<svg version="1.1" id="Capa_1" xmlns="http://www.w3.org/2000/svg" x="0px"
	 y="0px"
	 viewBox="0 0 652.8 924.6" style="enable-background:new 0 0 652.8 924.6;" xml:space="preserve">
<style type="text/css">
	.st0{fill:#020203;}
	.st1{fill:#FFFFFF;}
</style>
	<g>
	<g>
		
			<rect x="160.3" y="270.3" transform="matrix(0.9773 -0.2119 0.2119 0.9773 -69.2275 81.1818)" class="st0"
				  width="367.8" height="186.8"/>
	</g>
		<g>
		<path class="st1" d="M191.1,341.2l34.1-7.4L246,403l3.7,16.8l2.7-0.6l-3.7-16.8l-9.8-71.6l33.5-7.3l23,106.2l-19.1,4.1l-16.5-76.3
			l-1.7-8.7l-2.6,0.6l1.6,8.7l10,77.7l-24.6,5.3l-23.2-74.9l-2-8.6l-2.6,0.6l2,8.6l16.5,76.3l-19.1,4.1L191.1,341.2z"/>
			<path class="st1" d="M285,320.9l19.1-4.1l23,106.2l-19.1,4.1L285,320.9z"/>
			<path class="st1" d="M316.5,314l36.1-7.8l3.8,17.5l-17,3.7l5.7,26.4l15.3-3.3l3.7,17l-15.3,3.3l6.1,27.9l17-3.7l3.8,17.5
			l-36.1,7.8L316.5,314z"/>
			<path class="st1" d="M363.5,303.9l25.9-5.6c14.3-3.1,25.6,3.7,28.4,16.7l13.6,62.5c2.8,13-4.7,23.9-18.9,27l-25.9,5.6L363.5,303.9
			z M386.4,317.2l15.5,71.3l5.6-1.2c3.5-0.8,5.3-3.4,4.5-6.9l-13-60.1c-0.8-3.5-3.5-5.1-7-4.4L386.4,317.2z"/>
			<path class="st1" d="M442.9,375.6l-13.8-63.9c-3-13.7,5-25.1,19.9-28.3c14.9-3.2,26.9,3.9,29.9,17.5l13.8,63.9
			c3,13.8-5,25.2-19.9,28.5C457.9,396.5,445.9,389.4,442.9,375.6z M473.6,369l-13.8-63.7c-0.8-3.5-3.5-5.1-7-4.4
			c-3.5,0.8-5.3,3.4-4.5,6.9l13.8,63.7c0.8,3.5,3.5,5.1,7,4.4C472.5,375.1,474.3,372.5,473.6,369z"/>
	</g>
		<g>
		
			<rect x="335.3" y="442.5" transform="matrix(0.9999 -1.306139e-02 1.306139e-02 0.9999 -6.9567 6.5049)"
				  class="st0" width="318.5" height="186.8"/>
	</g>
		<g>
		<path class="st1" d="M373.6,483.1l37-0.5l0.2,17.9l-17.4,0.2l0.4,27l15.7-0.2l0.2,17.4l-15.7,0.2l0.4,28.6l17.4-0.2l0.2,17.9
			l-37,0.5L373.6,483.1z M389.5,462.1l21.4-0.3l-10,16.3l-18.9,0.2L389.5,462.1z"/>
			<path class="st1" d="M431.6,535L419,482.5l21-0.3l6.2,33.9l0.1,6.7l2.6,0l-0.1-6.7L454,482l20-0.3l-11.4,53.7l12.8,55l-20.8,0.3
			l-6.5-34.7l-0.1-8.1l-2.6,0l0.1,8.1l-5.8,34.9l-20,0.3L431.6,535z"/>
			<path class="st1" d="M483.4,481.6l19.6-0.3l1.4,108.7l-19.6,0.3L483.4,481.6z"/>
			<path class="st1" d="M524,499l-11.2,0.1l-0.2-17.9l41.9-0.5l0.2,17.9l-11.2,0.1l1.2,90.8l-19.6,0.3L524,499z"/>
			<path class="st1" d="M564.2,567.5l-0.9-65.4c-0.2-14,9.9-23.6,25.2-23.8c15.2-0.2,25.6,9.1,25.8,23.1l0.9,65.4
			c0.2,14.1-9.9,23.7-25.2,23.9S564.4,581.7,564.2,567.5z M595.6,567.1l-0.9-65.2c0-3.6-2.4-5.7-6-5.7c-3.6,0-5.9,2.3-5.8,5.8
			l0.9,65.2c0,3.6,2.4,5.7,6,5.7C593.4,572.9,595.7,570.7,595.6,567.1z"/>
	</g>
		<circle class="st0" cx="541.6" cy="388.5" r="74.1"/>
		<g>
		<path class="st1" d="M517.9,353.5L496,408.7l15.4,3.3l4.6-12.9l9.7,2.1l-0.9,13.7l15.4,3.3l2.9-59.2L517.9,353.5z M519.7,388.4
			l7-19.8l1,0.2l-1.4,21L519.7,388.4z"/>
			<polygon class="st1"
					 points="563,411.5 573,365.4 557,361.9 544.7,419.1 550.4,420.4 550.4,420.4 574.9,425.6 577.3,414.6 		"/>
	</g>
</g>
	<g>
	<g>
		
			<rect x="67.1" y="15.4" transform="matrix(0.9968 8.045963e-02 -8.045963e-02 0.9968 9.5645 -19.8446)"
				  class="st1" width="367.8" height="186.8"/>
	</g>
		<g>
		<path class="st0" d="M111,42.9l34.8,2.8l-0.2,72.3l-1.4,17.2l2.8,0.2l1.4-17.2l11.4-71.4l34.2,2.8L185.2,158l-19.5-1.6l6.3-77.8
			l0.9-8.8l-2.6-0.2l-1,8.8l-12.9,77.3l-25.1-2l-0.5-78.4l0.6-8.8l-2.6-0.2L128,75l-6.3,77.8l-19.5-1.6L111,42.9z"/>
			<path class="st0" d="M206.7,50.7l19.5,1.6l-8.7,108.3L198,159L206.7,50.7z"/>
			<path class="st0" d="M238.9,53.3l36.8,3L274.3,74L257,72.6l-2.2,26.9l15.6,1.3l-1.4,17.3l-15.6-1.3l-2.3,28.5l17.3,1.4l-1.4,17.8
			l-36.8-3L238.9,53.3z"/>
			<path class="st0" d="M286.8,57.1l26.5,2.1c14.5,1.2,23.4,10.9,22.3,24.2l-5.1,63.8c-1.1,13.3-11.4,21.5-25.9,20.3l-26.5-2.1
			L286.8,57.1z M304.8,76.5l-5.9,72.7l5.7,0.5c3.6,0.3,6.1-1.7,6.3-5.2l4.9-61.3c0.3-3.6-1.9-5.9-5.4-6.2L304.8,76.5z"/>
			<path class="st0" d="M342,148.8l5.3-65.2c1.1-13.9,12.1-22.5,27.3-21.3s24.6,11.5,23.5,25.4l-5.3,65.2
			c-1.1,14.1-12.1,22.7-27.3,21.5C350.3,173.2,340.9,162.9,342,148.8z M373.3,151.3l5.2-65c0.3-3.6-1.9-5.9-5.4-6.2
			c-3.6-0.3-6.1,1.7-6.3,5.3l-5.2,65c-0.3,3.6,1.9,5.9,5.4,6.2C370.5,156.9,373,154.9,373.3,151.3z"/>
	</g>
		<g>
		
			<rect x="185.7" y="223.7" transform="matrix(0.9608 0.2773 -0.2773 0.9608 101.4606 -83.2184)" class="st1"
				  width="318.5" height="186.8"/>
	</g>
		<g>
		<path class="st0" d="M244.5,231.6l35.5,10.2l-5,17.2l-16.7-4.8l-7.5,26l15.1,4.3l-4.8,16.7l-15.1-4.3l-7.9,27.4l16.7,4.8l-5,17.2
			L214.4,336L244.5,231.6z M265.8,216.1l20.6,5.9l-14.3,12.7l-18.2-5.3L265.8,216.1z"/>
			<path class="st0" d="M285,298l3.1-53.9l20.1,5.8l-3.9,34.3l-1.9,6.4l2.5,0.7l1.9-6.4l14.9-31.1l19.2,5.6l-26.5,48.1l-3.6,56.3
			l-20-5.8l3.8-35.1l2.2-7.8l-2.5-0.7l-2.2,7.8L276.6,354l-19.2-5.6L285,298z"/>
			<path class="st0" d="M350.1,262l18.8,5.4l-30.1,104.4l-18.8-5.4L350.1,262z"/>
			<path class="st0"
				  d="M383.9,290.4l-10.7-3.1l5-17.2l40.3,11.6l-5,17.2l-10.7-3.1l-25.2,87.3l-18.8-5.4L383.9,290.4z"/>
			<path class="st0" d="M402.5,367.7l18.1-62.8c3.9-13.4,16.3-19.7,31-15.5c14.6,4.2,21.8,16.2,18,29.6l-18.1,62.8
			c-3.9,13.6-16.4,19.8-31,15.6C405.8,393.2,398.6,381.2,402.5,367.7z M432.6,376.4l18.1-62.7c1-3.4-0.6-6.2-4.1-7.2
			s-6.3,0.5-7.3,3.9l-18.1,62.7c-1,3.4,0.6,6.2,4.1,7.2S431.7,379.8,432.6,376.4z"/>
	</g>
		<circle class="st1" cx="432.7" cy="189.8" r="74.1"/>
		<g>
		<path class="st0" d="M420.2,149.4l-37,46.4l13.7,7.6l8.1-11l8.7,4.8l-4.8,12.8l13.7,7.6l19.9-55.8L420.2,149.4z M411.8,183.3
			l12.5-16.9l0.9,0.5l-7.4,19.7L411.8,183.3z"/>
			<polygon class="st0"
					 points="446.6,218 469.5,176.7 455.2,168.8 426.9,220 431.9,222.8 431.9,222.8 453.8,234.9 459.3,225.1 		"/>
	</g>
</g>
	<g>
	<g>
		
			<rect x="24.7" y="567.1" transform="matrix(0.8928 -0.4505 0.4505 0.8928 -275.1935 164.8)" class="st1"
				  width="367.8" height="186.8"/>
	</g>
		<g>
		<path class="st0" d="M54.8,677.2L86,661.5l37.4,61.8l7.8,15.4l2.5-1.3l-7.8-15.4l-27.5-66.8l30.6-15.5l49,97l-17.5,8.8l-35.2-69.7
			l-3.9-8l-2.4,1.2l3.7,8l29.2,72.7l-22.5,11.3l-41.3-66.7l-4.1-7.8l-2.4,1.2l4.1,7.8l35.2,69.7l-17.5,8.8L54.8,677.2z"/>
			<path class="st0" d="M140.5,633.9l17.5-8.8l49,97l-17.5,8.8L140.5,633.9z"/>
			<path class="st0" d="M169.3,619.4l33-16.6l8,15.9l-15.5,7.8l12.2,24.1l14-7.1l7.8,15.5l-14,7.1l12.9,25.5l15.5-7.8l8,15.9
			l-33,16.6L169.3,619.4z"/>
			<path class="st0" d="M212.2,597.8l23.7-12c13-6.6,25.7-2.9,31.7,9l28.8,57.1c6,11.9,1.5,24.3-11.6,30.9l-23.7,12L212.2,597.8z
			 M237.7,604.9l32.9,65.1l5.1-2.6c3.2-1.6,4.3-4.6,2.7-7.8l-27.7-54.9c-1.6-3.2-4.7-4.1-7.9-2.5L237.7,604.9z"/>
			<path class="st0" d="M307.1,647.3l-29.5-58.4c-6.3-12.5-1.4-25.5,12.2-32.4s27-3,33.3,9.5l29.5,58.4c6.4,12.6,1.5,25.7-12.1,32.5
			C326.9,663.7,313.5,659.9,307.1,647.3z M335.1,633.1l-29.4-58.2c-1.6-3.2-4.7-4.1-7.9-2.5c-3.2,1.6-4.3,4.6-2.7,7.8l29.4,58.2
			c1.6,3.2,4.7,4.1,7.9,2.5C335.6,639.3,336.7,636.3,335.1,633.1z"/>
	</g>
		<g>
		
			<rect x="238" y="696" transform="matrix(0.9646 -0.2638 0.2638 0.9646 -194.162 132.7681)" class="st1"
				  width="318.5" height="186.8"/>
	</g>
		<g>
		<path class="st0" d="M267,768.7l35.6-9.7l4.7,17.2l-16.8,4.6l7.1,26.1l15.1-4.1l4.6,16.8l-15.1,4.1l7.5,27.6l16.8-4.6l4.7,17.2
			l-35.6,9.7L267,768.7z M277.1,744.4l20.7-5.7l-5.6,18.3l-18.3,5L277.1,744.4z"/>
			<path class="st0" d="M336.2,804.3l-25.4-47.6l20.2-5.5l14.5,31.3l1.8,6.4l2.5-0.7l-1.8-6.4l-3.4-34.3l19.3-5.3l2.4,54.9l26.2,50
			l-20.1,5.5l-15-32l-2.1-7.8l-2.5,0.7l2.1,7.8l3.2,35.2l-19.3,5.3L336.2,804.3z"/>
			<path class="st0" d="M372.9,739.7l18.9-5.2l28.7,104.8l-18.9,5.2L372.9,739.7z"/>
			<path class="st0"
				  d="M416.6,746.3l-10.8,2.9l-4.7-17.2l40.4-11.1l4.7,17.2l-10.8,2.9l24,87.6l-18.9,5.2L416.6,746.3z"/>
			<path class="st0" d="M472.8,802.6l-17.2-63.1c-3.7-13.5,3.7-25.3,18.4-29.3c14.7-4,27.1,2.4,30.8,15.9l17.2,63.1
			c3.7,13.6-3.7,25.5-18.3,29.5C488.9,822.6,476.5,816.2,472.8,802.6z M503,794.3l-17.2-62.9c-0.9-3.4-3.8-4.9-7.2-4
			c-3.4,0.9-5.1,3.7-4.2,7.1l17.2,62.9c0.9,3.4,3.8,4.9,7.2,4C502.3,800.4,504,797.7,503,794.3z"/>
	</g>
		<circle class="st1" cx="405.9" cy="635" r="74.1"/>
		<g>
		<path class="st0" d="M374.1,607l-7.4,58.9l15.7-0.7l1.2-13.6l9.9-0.4l2.6,13.4l15.7-0.7L399.8,606L374.1,607z M384.6,640.3
			l1.8-20.9l1,0l4,20.7L384.6,640.3z"/>
			<polygon class="st0" points="432.4,651.9 430.4,604.7 414.1,605.4 416.6,663.8 422.4,663.6 422.4,663.6 447.4,662.5 446.9,651.2
					"/>
	</g>
</g>
</svg>
