<?xml version="1.0" encoding="utf-8"?>
<!-- Generator: Adobe Illustrator 26.3.1, SVG Export Plug-In . SVG Version: 6.00 Build 0)  -->
<svg version="1.1" id="Capa_1" xmlns="http://www.w3.org/2000/svg" x="0px"
	 y="0px"
	 viewBox="0 0 595.3 994.2" style="enable-background:new 0 0 595.3 994.2;" xml:space="preserve">
<style type="text/css">
	.st0{fill:#020203;}
	.st1{fill:#FFFFFF;}
</style>
	<g>
	<g>
		
			<rect x="66.7" y="72.9" transform="matrix(0.8802 -0.4745 0.4745 0.8802 -47.764 133.8381)" class="st0"
				  width="349.2" height="177.3"/>
	</g>
		<g>
		<path class="st1" d="M95.7,181.4l29.2-15.7l37.1,57.7l7.8,14.4l2.3-1.3l-7.8-14.4l-27.8-62.7l28.7-15.5l49,90.8l-16.4,8.8
			l-35.2-65.3l-3.9-7.5l-2.2,1.2l3.7,7.5l29.6,68.3l-21,11.3L128.1,197l-4.1-7.3l-2.2,1.2l4.1,7.3l35.2,65.3l-16.4,8.8L95.7,181.4z"
		/>
			<path class="st1" d="M176,138.1l16.4-8.8l49,90.8l-16.4,8.8L176,138.1z"/>
			<path class="st1" d="M203,123.6l30.9-16.7l8,14.9l-14.5,7.8l12.2,22.6l13.1-7.1l7.8,14.5l-13.1,7.1l12.9,23.9l14.5-7.8l8,14.9
			l-30.9,16.7L203,123.6z"/>
			<path class="st1" d="M243.1,101.9l22.2-12c12.2-6.6,24.3-3.4,30.3,7.8l28.8,53.5c6,11.2,2,23-10.2,29.6l-22.2,12L243.1,101.9z
			 M267.5,108.1l32.9,61l4.8-2.6c3-1.6,3.9-4.5,2.3-7.5l-27.7-51.4c-1.6-3-4.5-3.8-7.5-2.1L267.5,108.1z"/>
			<path class="st1" d="M334.5,146.5L305,91.8c-6.3-11.7-2-24.2,10.7-31.1s25.6-3.6,31.8,8.1l29.5,54.6c6.4,11.8,2.1,24.3-10.7,31.2
			C353.7,161.6,340.8,158.3,334.5,146.5z M360.7,132.3l-29.4-54.5c-1.6-3-4.5-3.8-7.5-2.1c-3,1.6-3.9,4.5-2.3,7.5l29.4,54.5
			c1.6,3,4.5,3.8,7.5,2.1C361.3,138.2,362.3,135.3,360.7,132.3z"/>
	</g>
		<g>
		
			<rect x="272.5" y="190.4" transform="matrix(0.9571 -0.2898 0.2898 0.9571 -62.6912 134.7706)" class="st0"
				  width="302.4" height="177.3"/>
	</g>
		<g>
		<path class="st1" d="M299.5,262.8l33.6-10.2l4.9,16.2l-15.8,4.8l7.4,24.6l14.3-4.3l4.8,15.8l-14.3,4.3l7.9,26l15.8-4.8l4.9,16.2
			l-33.6,10.2L299.5,262.8z M308.5,239.4l19.5-5.9l-4.9,17.5l-17.2,5.2L308.5,239.4z"/>
			<path class="st1" d="M366.1,294.8l-25.3-44.5l19-5.8l14.6,29.3l1.8,6.1l2.4-0.7l-1.8-6.1l-4.1-32.5l18.2-5.5l3.7,52l26.2,46.8
			l-18.9,5.7l-15.1-29.9l-2.2-7.3l-2.4,0.7l2.2,7.3l3.9,33.3l-18.2,5.5L366.1,294.8z"/>
			<path class="st1" d="M399.3,232.5l17.8-5.4l29.9,98.8l-17.8,5.4L399.3,232.5z"/>
			<path class="st1"
				  d="M440.9,237.7l-10.2,3.1l-4.9-16.2L464,213l4.9,16.2l-10.2,3.1l25,82.5l-17.8,5.4L440.9,237.7z"/>
			<path class="st1" d="M495.7,289.6l-18-59.4c-3.8-12.7,2.9-24.1,16.7-28.3s25.8,1.6,29.6,14.3l18,59.4c3.9,12.8-2.8,24.3-16.6,28.5
			S499.5,302.5,495.7,289.6z M524.2,281l-17.9-59.3c-1-3.2-3.7-4.6-6.9-3.6c-3.2,1-4.8,3.6-3.8,6.8l17.9,59.3c1,3.2,3.7,4.6,6.9,3.6
			C523.6,286.9,525.1,284.2,524.2,281z"/>
	</g>
		<circle class="st0" cx="427.8" cy="132.3" r="70.3"/>
		<g>
		<path class="st1" d="M397,106.6l-5.5,56.1l14.9-1l0.8-12.9l9.4-0.7l2.8,12.7l14.9-1l-12.9-54.8L397,106.6z M407.8,137.9L409,118
			l1-0.1l4.3,19.5L407.8,137.9z"/>
			<polygon class="st1"
					 points="453.5,147.6 450.4,102.9 435,104 438.8,159.4 444.3,159 444.3,159 468,157.4 467.3,146.7 		"/>
	</g>
</g>
	<g>
	<g>
		
			<rect x="18.5" y="531" transform="matrix(0.9238 0.3829 -0.3829 0.9238 251.9654 -26.7117)" class="st0"
				  width="349.2" height="177.3"/>
	</g>
		<g>
		<path class="st1" d="M85.8,519.3l30.6,12.7l-21.3,65.2l-6.3,15.1l2.5,1l6.3-15.1l31.1-61.2l30.1,12.5l-39.5,95.3l-17.2-7.1
			l28.4-68.5l3.4-7.7l-2.3-1l-3.5,7.6l-34.2,66.1l-22.1-9.1l22.4-71l3.1-7.8l-2.3-1l-3.1,7.8l-28.4,68.5l-17.2-7.1L85.8,519.3z"/>
			<path class="st1" d="M170,554.2l17.2,7.1l-39.5,95.3l-17.2-7.1L170,554.2z"/>
			<path class="st1" d="M198.3,565.9l32.4,13.4l-6.5,15.7l-15.3-6.3l-9.8,23.7l13.8,5.7l-6.3,15.3l-13.8-5.7l-10.4,25.1l15.3,6.3
			l-6.5,15.7l-32.4-13.4L198.3,565.9z"/>
			<path class="st1" d="M240.4,583.4l23.3,9.7c12.8,5.3,18,16.7,13.1,28.4l-23.3,56.1c-4.9,11.7-16.6,16.1-29.4,10.8l-23.3-9.7
			L240.4,583.4z M251.1,606.2l-26.5,64l5,2.1c3.1,1.3,6,0.2,7.3-2.9l22.4-53.9c1.3-3.1,0-5.9-3.1-7.2L251.1,606.2z"/>
			<path class="st1" d="M263.6,682.4l23.8-57.3c5.1-12.3,17.5-16.8,30.9-11.3c13.3,5.5,18.9,17.6,13.8,29.8l-23.8,57.3
			c-5.1,12.4-17.6,17-30.9,11.4S258.5,694.8,263.6,682.4z M291.1,693.8l23.7-57.2c1.3-3.1,0-5.9-3.1-7.2s-6-0.2-7.3,2.9l-23.7,57.2
			c-1.3,3.1,0,5.9,3.1,7.2C287,698,289.8,696.9,291.1,693.8z"/>
	</g>
		<g>
		
			<rect x="65.9" y="746.6" transform="matrix(0.8291 0.5591 -0.5591 0.8291 504.1669 21.3485)" class="st0"
				  width="302.4" height="177.3"/>
	</g>
		<g>
		<path class="st1" d="M151.4,728.7l29.1,19.6l-9.5,14.1l-13.7-9.2L143,774.4l12.3,8.3l-9.2,13.7l-12.3-8.3l-15.2,22.5l13.7,9.2
			l-9.5,14.1l-29.1-19.6L151.4,728.7z M175.1,720.9l16.9,11.4l-16.6,7.3l-14.9-10.1L175.1,720.9z"/>
			<path class="st1" d="M168.6,800.6l18.5-47.8l16.5,11.1l-13.5,29.8l-3.5,5.3l2.1,1.4l3.5-5.3l22.6-23.7l15.8,10.6l-38,35.7
			l-19.7,49.8l-16.4-11l13.7-30.6l4.3-6.4l-2.1-1.4l-4.3,6.4l-23.4,24.1L128.9,838L168.6,800.6z"/>
			<path class="st1" d="M237.8,787l15.4,10.4l-57.7,85.6l-15.4-10.4L237.8,787z"/>
			<path class="st1"
				  d="M260.2,822.5l-8.8-5.9l9.5-14.1l33,22.3l-9.5,14.1l-8.8-5.9l-48.2,71.5L211.9,894L260.2,822.5z"/>
			<path class="st1" d="M254.4,897.8l34.7-51.5c7.4-11,20.5-13,32.5-4.9c12,8.1,15,21,7.6,32l-34.7,51.5
			c-7.5,11.1-20.6,13.1-32.6,5.1C249.9,921.8,246.9,908.9,254.4,897.8z M279.1,914.4l34.6-51.3c1.9-2.8,1.2-5.8-1.6-7.7
			c-2.8-1.9-5.8-1.4-7.7,1.4l-34.6,51.3c-1.9,2.8-1.2,5.8,1.6,7.7C274.2,917.7,277.2,917.2,279.1,914.4z"/>
	</g>
		<circle class="st0" cx="333.6" cy="745.8" r="70.3"/>
		<g>
		<path class="st1" d="M334.1,705.7l-47,31.1l10.2,10.9l10.5-7.6l6.5,6.9l-8.1,10.2l10.2,10.9l34.3-44.6L334.1,705.7z M316.6,733.9
			l16.2-11.6l0.7,0.7L321,738.6L316.6,733.9z"/>
			<polygon class="st1" points="337.9,775.4 370.6,744.7 360,733.4 319.5,771.4 323.2,775.4 323.2,775.4 339.5,792.8 347.3,785.5
			"/>
	</g>
</g>
	<g>
	<g>
		
			<rect x="163" y="326.5" transform="matrix(0.9968 8.045963e-02 -8.045963e-02 0.9968 34.4967 -25.8173)"
				  class="st1" width="349.2" height="177.3"/>
	</g>
		<g>
		<path class="st0" d="M204.7,352.6l33.1,2.7l-0.2,68.6l-1.3,16.3l2.6,0.2l1.3-16.3l10.8-67.8l32.5,2.6l-8.3,102.9l-18.5-1.5l6-73.9
			l0.8-8.4l-2.5-0.2l-1,8.4l-12.3,73.4l-23.8-1.9l-0.5-74.4l0.5-8.4l-2.5-0.2l-0.5,8.4l-6,73.9l-18.5-1.5L204.7,352.6z"/>
			<path class="st0" d="M295.5,360l18.5,1.5l-8.3,102.9l-18.5-1.5L295.5,360z"/>
			<path class="st0" d="M326.1,362.4l35,2.8l-1.4,16.9l-16.5-1.3l-2.1,25.6l14.8,1.2l-1.3,16.5l-14.8-1.2l-2.2,27l16.5,1.3l-1.4,16.9
			l-35-2.8L326.1,362.4z"/>
			<path class="st0" d="M371.5,366.1l25.1,2c13.8,1.1,22.2,10.4,21.2,23l-4.9,60.5c-1,12.6-10.8,20.4-24.6,19.3l-25.1-2L371.5,366.1z
			 M388.7,384.5l-5.6,69.1l5.4,0.4c3.4,0.3,5.7-1.6,6-5l4.7-58.2c0.3-3.4-1.8-5.6-5.1-5.9L388.7,384.5z"/>
			<path class="st0" d="M424,453.2l5-61.9c1.1-13.2,11.5-21.4,25.9-20.2c14.4,1.2,23.4,10.9,22.3,24.1l-5,61.9
			c-1.1,13.4-11.5,21.6-25.9,20.4C431.9,476.3,422.9,466.5,424,453.2z M453.7,455.6l5-61.7c0.3-3.4-1.8-5.6-5.1-5.9
			c-3.4-0.3-5.7,1.6-6,5l-5,61.7c-0.3,3.4,1.8,5.6,5.1,5.9C451,460.8,453.4,459,453.7,455.6z"/>
	</g>
		<g>
		
			<rect x="275.6" y="524.3" transform="matrix(0.9608 0.2773 -0.2773 0.9608 186.7036 -94.3075)" class="st1"
				  width="302.4" height="177.3"/>
	</g>
		<g>
		<path class="st0" d="M331.4,531.8l33.7,9.7l-4.7,16.3l-15.9-4.6l-7.1,24.6l14.3,4.1l-4.6,15.9l-14.3-4.1l-7.5,26.1l15.9,4.6
			l-4.7,16.3l-33.7-9.7L331.4,531.8z M351.6,517l19.5,5.6l-13.6,12l-17.3-5L351.6,517z"/>
			<path class="st0" d="M369.9,594.9l3-51.2l19.1,5.5l-3.7,32.5l-1.8,6.1l2.4,0.7l1.8-6.1l14.2-29.5l18.3,5.3l-25.2,45.7l-3.5,53.5
			l-19-5.5l3.6-33.3l2.1-7.4l-2.4-0.7l-2.1,7.4L361.9,648l-18.3-5.3L369.9,594.9z"/>
			<path class="st0" d="M431.6,560.7l17.8,5.2L420.9,665l-17.8-5.2L431.6,560.7z"/>
			<path class="st0"
				  d="M463.8,587.6l-10.2-2.9l4.7-16.3l38.2,11l-4.7,16.3l-10.2-2.9l-23.9,82.9l-17.8-5.1L463.8,587.6z"/>
			<path class="st0" d="M481.4,661l17.2-59.6c3.7-12.7,15.5-18.7,29.4-14.7c13.9,4,20.7,15.3,17.1,28.1l-17.2,59.6
			c-3.7,12.9-15.6,18.8-29.4,14.8C484.6,685.2,477.7,673.9,481.4,661z M510,669.2l17.2-59.5c0.9-3.3-0.6-5.9-3.9-6.8s-6,0.4-6.9,3.7
			l-17.2,59.5c-0.9,3.3,0.6,5.9,3.9,6.8C506.4,673.9,509.1,672.5,510,669.2z"/>
	</g>
		<circle class="st1" cx="510.1" cy="492.1" r="70.3"/>
		<g>
		<path class="st0" d="M498.2,453.7l-35.1,44.1l13.1,7.2l7.7-10.4l8.3,4.6l-4.6,12.2l13.1,7.2l18.9-53L498.2,453.7z M490.2,485.9
			l11.8-16l0.8,0.5l-7,18.7L490.2,485.9z"/>
			<polygon class="st0" points="523.3,518.9 545,479.6 531.5,472.1 504.5,520.7 509.3,523.4 509.3,523.4 530.2,534.9 535.4,525.6
			"/>
	</g>
</g>
</svg>
