<?xml version="1.0" encoding="utf-8"?>
<!-- Generator: Adobe Illustrator 26.3.1, SVG Export Plug-In . SVG Version: 6.00 Build 0)  -->
<svg version="1.1" id="Capa_1" xmlns="http://www.w3.org/2000/svg" x="0px"
	 y="0px"
	 viewBox="0 0 157.9 500" style="enable-background:new 0 0 157.9 500;" xml:space="preserve">
<style type="text/css">
	.st0{fill:#020203;}
	.st1{fill:#FFFFFF;}
</style>
	<g>
	<g>
		
			<rect x="14.9" y="35.7" transform="matrix(0.8802 -0.4745 0.4745 0.8802 -25.8077 58.4134)" class="st0"
				  width="175.9" height="89.3"/>
	</g>
		<g>
		<path class="st1" d="M29.5,90.3l14.7-7.9l18.7,29.1l3.9,7.3l1.2-0.6l-3.9-7.3l-14-31.6l14.4-7.8l24.7,45.8l-8.2,4.4L63.3,88.8
			L61.3,85l-1.1,0.6l1.9,3.8L77,123.8l-10.6,5.7L45.8,98.2l-2.1-3.7l-1.1,0.6l2.1,3.7l17.7,32.9l-8.2,4.4L29.5,90.3z"/>
			<path class="st1" d="M69.9,68.5l8.2-4.4l24.7,45.8l-8.2,4.4L69.9,68.5z"/>
			<path class="st1" d="M83.5,61.2l15.6-8.4l4.1,7.5l-7.3,3.9l6.1,11.4l6.6-3.6l3.9,7.3l-6.6,3.6l6.5,12l7.3-3.9l4.1,7.5l-15.6,8.4
			L83.5,61.2z"/>
			<path class="st1" d="M103.7,50.3l11.2-6c6.1-3.3,12.2-1.7,15.3,3.9l14.5,26.9c3,5.6,1,11.6-5.1,14.9l-11.2,6L103.7,50.3z
			 M116,53.4l16.6,30.7l2.4-1.3c1.5-0.8,2-2.3,1.2-3.8l-14-25.9c-0.8-1.5-2.3-1.9-3.8-1.1L116,53.4z"/>
			<path class="st1" d="M149.8,72.7l-14.8-27.5c-3.2-5.9-1-12.2,5.4-15.6s12.9-1.8,16,4.1l14.8,27.5c3.2,5.9,1,12.3-5.4,15.7
			C159.4,80.4,153,78.7,149.8,72.7z M163,65.6l-14.8-27.5c-0.8-1.5-2.3-1.9-3.8-1.1c-1.5,0.8-2,2.3-1.2,3.8L158,68.3
			c0.8,1.5,2.3,1.9,3.8,1.1C163.3,68.6,163.8,67.1,163,65.6z"/>
	</g>
		<g>
		
			<rect x="118.5" y="94.9" transform="matrix(0.9571 -0.2898 0.2898 0.9571 -32.0795 62.4166)" class="st0"
				  width="152.3" height="89.3"/>
	</g>
		<g>
		<path class="st1" d="M132.2,131.3l16.9-5.1l2.5,8.2l-8,2.4l3.7,12.4l7.2-2.2l2.4,8l-7.2,2.2l4,13.1l8-2.4l2.5,8.2l-16.9,5.1
			L132.2,131.3z M136.7,119.6l9.8-3l-2.5,8.8l-8.7,2.6L136.7,119.6z"/>
			<path class="st1" d="M165.7,147.5L152.9,125l9.6-2.9l7.3,14.8l0.9,3.1l1.2-0.4l-0.9-3.1l-2.1-16.4l9.2-2.8l1.9,26.2l13.2,23.6
			l-9.5,2.9l-7.6-15.1l-1.1-3.7l-1.2,0.4l1.1,3.7l2,16.8l-9.2,2.8L165.7,147.5z"/>
			<path class="st1" d="M182.4,116.1l9-2.7l15.1,49.7l-9,2.7L182.4,116.1z"/>
			<path class="st1"
				  d="M203.4,118.7l-5.1,1.5l-2.5-8.2l19.2-5.8l2.5,8.2l-5.1,1.5l12.6,41.6l-9,2.7L203.4,118.7z"/>
			<path class="st1" d="M230.9,144.8l-9.1-29.9c-1.9-6.4,1.4-12.2,8.4-14.3c7-2.1,13,0.8,14.9,7.2l9.1,29.9c2,6.5-1.4,12.2-8.4,14.3
			C238.9,154.2,232.9,151.3,230.9,144.8z M245.3,140.5l-9-29.8c-0.5-1.6-1.9-2.3-3.5-1.8s-2.4,1.8-1.9,3.4l9,29.8
			c0.5,1.6,1.9,2.3,3.5,1.8S245.8,142.1,245.3,140.5z"/>
	</g>
		<circle class="st0" cx="196.8" cy="65.6" r="35.4"/>
		<g>
		<path class="st1" d="M181.3,52.7l-2.8,28.2l7.5-0.5l0.4-6.5l4.7-0.3l1.4,6.4l7.5-0.5l-6.5-27.6L181.3,52.7z M186.7,68.4l0.6-10
			l0.5,0l2.2,9.8L186.7,68.4z"/>
			<polygon class="st1"
					 points="209.7,73.3 208.1,50.8 200.4,51.3 202.3,79.2 205.1,79.1 205.1,79.1 217,78.2 216.6,72.8 		"/>
	</g>
</g>
	<g>
	<g>
		
			<rect x="10.6" y="266.4" transform="matrix(0.9238 0.3829 -0.3829 0.9238 126.6121 -14.0306)" class="st0"
				  width="175.9" height="89.3"/>
	</g>
		<g>
		<path class="st1" d="M44.5,260.5l15.4,6.4l-10.7,32.9l-3.2,7.6l1.2,0.5l3.2-7.6l15.7-30.8l15.2,6.3l-19.9,48l-8.6-3.6L67,285.7
			l1.7-3.9l-1.2-0.5l-1.8,3.9l-17.3,33.3l-11.1-4.6l11.3-35.8l1.6-3.9l-1.2-0.5l-1.6,3.9l-14.3,34.5l-8.6-3.6L44.5,260.5z"/>
			<path class="st1" d="M86.9,278.1l8.6,3.6l-19.9,48l-8.6-3.6L86.9,278.1z"/>
			<path class="st1" d="M101.2,284l16.3,6.8l-3.3,7.9l-7.7-3.2l-4.9,11.9l6.9,2.9l-3.2,7.7l-6.9-2.9l-5.2,12.6l7.7,3.2l-3.3,7.9
			L81.3,332L101.2,284z"/>
			<path class="st1" d="M122.4,292.8l11.7,4.9c6.4,2.7,9.1,8.4,6.6,14.3L129,340.2c-2.4,5.9-8.3,8.1-14.8,5.4l-11.7-4.9L122.4,292.8z
			 M127.8,304.3l-13.4,32.2l2.5,1.1c1.6,0.7,3,0.1,3.7-1.5l11.3-27.2c0.7-1.6,0-3-1.6-3.6L127.8,304.3z"/>
			<path class="st1" d="M134.1,342.7l12-28.9c2.6-6.2,8.8-8.5,15.5-5.7c6.7,2.8,9.5,8.8,7,15l-12,28.9c-2.6,6.2-8.9,8.6-15.6,5.8
			C134.3,355,131.5,348.9,134.1,342.7z M147.9,348.4l11.9-28.8c0.7-1.6,0-3-1.6-3.6c-1.6-0.7-3-0.1-3.7,1.5l-11.9,28.8
			c-0.7,1.6,0,3,1.6,3.6C145.9,350.5,147.3,350,147.9,348.4z"/>
	</g>
		<g>
		
			<rect x="34.5" y="375" transform="matrix(0.8291 0.5591 -0.5591 0.8291 253.5801 9.8491)" class="st0"
				  width="152.3" height="89.3"/>
	</g>
		<g>
		<path class="st1" d="M77.5,366l14.7,9.9l-4.8,7.1l-6.9-4.7L73.3,389l6.2,4.2l-4.7,6.9l-6.2-4.2L61,407.2l6.9,4.7l-4.8,7.1
			l-14.7-9.9L77.5,366z M89.5,362.1l8.5,5.7l-8.4,3.7l-7.5-5.1L89.5,362.1z"/>
			<path class="st1" d="M86.2,402.2l9.3-24.1l8.3,5.6l-6.8,15l-1.8,2.6l1,0.7l1.8-2.6l11.4-11.9l7.9,5.4l-19.1,18L88.3,436l-8.2-5.6
			L87,415l2.2-3.2l-1-0.7l-2.2,3.2l-11.8,12.1l-7.9-5.4L86.2,402.2z"/>
			<path class="st1" d="M121.1,395.4l7.8,5.2l-29.1,43.1l-7.8-5.2L121.1,395.4z"/>
			<path class="st1" d="M132.3,413.2l-4.4-3l4.8-7.1l16.6,11.2l-4.8,7.1l-4.4-3l-24.3,36l-7.8-5.2L132.3,413.2z"/>
			<path class="st1" d="M129.4,451.1l17.5-25.9c3.7-5.5,10.3-6.6,16.4-2.5c6,4.1,7.6,10.6,3.8,16.1l-17.5,25.9
			c-3.8,5.6-10.4,6.6-16.4,2.5C127.2,463.2,125.7,456.7,129.4,451.1z M141.9,459.5l17.4-25.9c1-1.4,0.6-2.9-0.8-3.9
			s-2.9-0.7-3.9,0.7l-17.4,25.9c-1,1.4-0.6,2.9,0.8,3.9C139.4,461.2,140.9,460.9,141.9,459.5z"/>
	</g>
		<circle class="st0" cx="169.3" cy="374.6" r="35.4"/>
		<g>
		<path class="st1" d="M169.6,354.4l-23.6,15.7l5.1,5.5l5.3-3.8l3.2,3.5l-4.1,5.1l5.1,5.5l17.3-22.5L169.6,354.4z M160.8,368.6
			l8.2-5.9l0.3,0.4L163,371L160.8,368.6z"/>
			<polygon class="st1" points="171.5,389.5 188,374.1 182.6,368.4 162.2,387.5 164.1,389.5 164.1,389.5 172.3,398.3 176.2,394.6
			"/>
	</g>
</g>
	<g>
	<g>
		
			<rect x="63.4" y="163.4" transform="matrix(0.9968 8.045963e-02 -8.045963e-02 0.9968 17.2314 -11.5022)"
				  class="st1" width="175.9" height="89.3"/>
	</g>
		<g>
		<path class="st0" d="M84.4,176.6l16.7,1.3l-0.1,34.6l-0.7,8.2l1.3,0.1l0.7-8.2l5.4-34.1l16.4,1.3l-4.2,51.8l-9.3-0.8l3-37.2
			l0.4-4.2l-1.3-0.1l-0.5,4.2l-6.2,37l-12-1L93.8,192l0.3-4.2l-1.3-0.1l-0.3,4.2l-3,37.2l-9.3-0.8L84.4,176.6z"/>
			<path class="st0" d="M130.1,180.3l9.3,0.8l-4.2,51.8l-9.3-0.8L130.1,180.3z"/>
			<path class="st0" d="M145.5,181.5l17.6,1.4l-0.7,8.5l-8.3-0.7l-1,12.9l7.5,0.6l-0.7,8.3l-7.5-0.6l-1.1,13.6l8.3,0.7l-0.7,8.5
			l-17.6-1.4L145.5,181.5z"/>
			<path class="st0" d="M168.4,183.4l12.7,1c7,0.6,11.2,5.2,10.7,11.6l-2.5,30.5c-0.5,6.4-5.4,10.3-12.4,9.7l-12.7-1L168.4,183.4z
			 M177.1,192.6l-2.8,34.8l2.7,0.2c1.7,0.1,2.9-0.8,3-2.5l2.4-29.3c0.1-1.7-0.9-2.8-2.6-3L177.1,192.6z"/>
			<path class="st0" d="M194.9,227.2l2.5-31.2c0.5-6.7,5.8-10.8,13-10.2c7.3,0.6,11.8,5.5,11.2,12.2l-2.5,31.2
			c-0.5,6.7-5.8,10.9-13,10.3S194.3,234,194.9,227.2z M209.8,228.4l2.5-31.1c0.1-1.7-0.9-2.8-2.6-3c-1.7-0.1-2.9,0.8-3,2.5
			l-2.5,31.1c-0.1,1.7,0.9,2.8,2.6,3C208.5,231.1,209.7,230.1,209.8,228.4z"/>
	</g>
		<g>
		
			<rect x="120.1" y="263.1" transform="matrix(0.9608 0.2773 -0.2773 0.9608 93.0181 -42.3554)" class="st1"
				  width="152.3" height="89.3"/>
	</g>
		<g>
		<path class="st0" d="M148.2,266.8l17,4.9l-2.4,8.2l-8-2.3l-3.6,12.4l7.2,2.1l-2.3,8L149,298l-3.8,13.1l8,2.3l-2.4,8.2l-17-4.9
			L148.2,266.8z M158.4,259.4l9.8,2.8l-6.8,6.1l-8.7-2.5L158.4,259.4z"/>
			<path class="st0" d="M167.6,298.6l1.5-25.8l9.6,2.8l-1.9,16.4L176,295l1.2,0.4l0.9-3.1l7.1-14.9l9.2,2.7l-12.7,23l-1.7,26.9
			l-9.6-2.8l1.8-16.8l1.1-3.7l-1.2-0.4l-1.1,3.7l-7.5,15.2l-9.2-2.7L167.6,298.6z"/>
			<path class="st0" d="M198.7,281.4l9,2.6l-14.4,49.9l-9-2.6L198.7,281.4z"/>
			<path class="st0" d="M214.9,294.9l-5.1-1.5l2.4-8.2l19.3,5.6L229,299l-5.1-1.5l-12,41.7l-9-2.6L214.9,294.9z"/>
			<path class="st0" d="M223.8,331.9l8.7-30c1.9-6.4,7.8-9.4,14.8-7.4c7,2,10.4,7.7,8.6,14.2l-8.7,30c-1.9,6.5-7.8,9.5-14.8,7.5
			C225.4,344.1,221.9,338.4,223.8,331.9z M238.2,336l8.6-30c0.5-1.6-0.3-2.9-2-3.4c-1.6-0.5-3,0.2-3.5,1.9l-8.6,30
			c-0.5,1.6,0.3,2.9,1.9,3.4C236.4,338.4,237.7,337.7,238.2,336z"/>
	</g>
		<circle class="st1" cx="238.2" cy="246.8" r="35.4"/>
		<g>
		<path class="st0" d="M232.2,227.5l-17.7,22.2l6.6,3.6l3.9-5.3l4.2,2.3l-2.3,6.1l6.6,3.6l9.5-26.7L232.2,227.5z M228.2,243.7l6-8.1
			l0.4,0.2l-3.5,9.4L228.2,243.7z"/>
			<polygon class="st0" points="244.9,260.3 255.8,240.6 249,236.8 235.4,261.3 237.8,262.6 237.8,262.6 248.3,268.4 250.9,263.7
			"/>
	</g>
</g>
</svg>
