<?xml version="1.0" encoding="utf-8"?>
<!-- Generator: Adobe Illustrator 26.3.1, SVG Export Plug-In . SVG Version: 6.00 Build 0)  -->
<svg version="1.1" id="Capa_1" xmlns="http://www.w3.org/2000/svg" x="0px"
	 y="0px"
	 viewBox="0 0 501.6 407.5" style="enable-background:new 0 0 501.6 407.5;" xml:space="preserve">
<style type="text/css">
	.st0{fill:#7143FF;}
	.st1{fill:#FFFFFF;}
</style>
	<rect x="11.3" y="24.9" transform="matrix(0.9903 -0.1392 0.1392 0.9903 -14.6696 28.5681)" class="st0" width="371.2"
		  height="188.5"/>
	<path class="st1" d="M44.5,85.2l34.9-4.9l15.7,71.2l2.4,17.2l2.8-0.4l-2.4-17.2l-4.5-72.8l34.3-4.8L143,182.2l-19.6,2.8l-11-78.1
	l-1.1-8.9l-2.6,0.4l0.9,8.9l4.3,79l-25.1,3.5L71,112.6l-1.4-8.8l-2.6,0.4l1.4,8.8l11,78.1l-19.6,2.8L44.5,85.2z"/>
	<path class="st1" d="M140.5,71.7L160,69l15.3,108.6l-19.6,2.8L140.5,71.7z"/>
	<path class="st1" d="M172.8,67.2l36.9-5.2l2.5,17.9l-17.4,2.4l3.8,27l15.7-2.2l2.5,17.4l-15.7,2.2l4,28.6l17.4-2.4l2.5,17.9
	l-36.9,5.2L172.8,67.2z"/>
	<path class="st1" d="M220.8,60.4l26.5-3.7c14.6-2.1,25.5,5.6,27.4,18.9l9,63.9c1.9,13.3-6.5,23.7-21.1,25.8l-26.5,3.7L220.8,60.4z
	 M242.8,75.5l10.2,73l5.7-0.8c3.6-0.5,5.6-3,5.1-6.6l-8.6-61.5c-0.5-3.6-3.1-5.4-6.7-4.9L242.8,75.5z"/>
	<path class="st1" d="M295.4,138.6l-9.2-65.4c-2-14,7-24.9,22.2-27s26.8,5.9,28.8,19.9l9.2,65.3c2,14.1-6.9,25-22.1,27.2
	S297.4,152.7,295.4,138.6z M326.8,134.2L317.6,69c-0.5-3.6-3.1-5.4-6.7-4.9s-5.6,3-5.1,6.6l9.2,65.2c0.5,3.6,3.1,5.4,6.7,4.9
	S327.3,137.7,326.8,134.2z"/>
	<rect x="241.2" y="142.9" transform="matrix(6.070012e-02 -0.9982 0.9982 6.070012e-02 11.9435 620.1016)" class="st0"
		  width="188.5" height="321.5"/>
	<path class="st1" d="M217.6,241.6l37.2,2.3l-1.1,18l-17.5-1.1l-1.7,27.2l15.8,1l-1.1,17.5l-15.8-1l-1.8,28.8l17.5,1.1l-1.1,18
	l-37.2-2.2L217.6,241.6z M235.2,221.6l21.6,1.3l-11.3,15.6l-19.1-1.2L235.2,221.6z"/>
	<path class="st1" d="M272.2,298.2l-8.8-53.8l21.1,1.3l3.7,34.6l-0.4,6.7l2.7,0.2l0.4-6.7l7.9-33.9l20.2,1.2L303.4,301l8.8,56.3
	l-21-1.3l-4-35.4l0.5-8.1l-2.7-0.2l-0.5,8.1l-8.3,34.7l-20.2-1.2L272.2,298.2z"/>
	<path class="st1" d="M328.3,248.3l19.7,1.2L341.3,359l-19.7-1.2L328.3,248.3z"/>
	<path class="st1" d="M367.9,268.8l-11.3-0.6l1.1-18l42.2,2.6l-1.1,18l-11.3-0.7l-5.6,91.5l-19.7-1.2L367.9,268.8z"/>
	<path class="st1" d="M403.2,340.8l4-65.9c0.9-14.1,11.8-23,27.1-22.1s25.1,11.1,24.2,25.2l-4,65.9c-0.9,14.2-11.8,23.2-27.1,22.2
	S402.4,355.1,403.2,340.8z M434.8,342.8l4-65.7c0.2-3.6-2-5.9-5.6-6.1s-6.1,1.8-6.3,5.4l-4,65.7c-0.2,3.6,2,5.9,5.6,6.2
	S434.6,346.4,434.8,342.8z"/>
	<circle cx="393.8" cy="158.9" r="74.8"/>
	<path class="st1" d="M372.5,121.9l-26.2,53.9l15.2,4.5l5.6-12.6l9.6,2.8l-1.9,13.7l15.2,4.5l7.3-59.4L372.5,121.9z M371.7,157.1
	l8.5-19.4l1,0.3l-2.9,21L371.7,157.1z"/>
	<polygon class="st1"
			 points="413.7,183.7 427.1,138 411.3,133.3 394.7,190 400.2,191.6 400.2,191.6 424.5,198.8 427.7,187.8 "/>
</svg>
