<svg id="Capa_1" data-name="Capa 1" xmlns="http://www.w3.org/2000/svg" viewBox="0 0 595.28 595.28"><defs><style>.cls-1{fill:#7143ff;}.cls-2{fill:#fff;}</style></defs><rect class="cls-1" x="58.14" y="118.76" width="371.25" height="188.52" transform="translate(-27.28 36) rotate(-8)"/><path class="cls-2" d="M91.34,179.05l34.92-4.9L142,245.38l2.42,17.23,2.79-.39L144.76,245l-4.53-72.8,34.3-4.82L189.8,276l-19.56,2.75-11-78.07-1.09-8.87-2.64.37.94,8.89,4.3,79-25.15,3.53-17.8-77.11-1.4-8.82-2.63.37,1.39,8.82,11,78.07-19.55,2.75Z"/><path class="cls-2" d="M187.31,165.57l19.55-2.75,15.27,108.64-19.55,2.75Z"/><path class="cls-2" d="M219.6,161l36.94-5.2,2.51,17.86-17.38,2.44,3.8,27,15.67-2.21,2.45,17.39-15.68,2.2,4,28.55,17.38-2.44,2.51,17.85-36.94,5.19Z"/><path class="cls-2" d="M267.59,154.28l26.54-3.73c14.59-2.05,25.48,5.6,27.35,18.95l9,63.95c1.88,13.34-6.48,23.7-21.07,25.75l-26.54,3.73Zm22.07,15.1,10.25,73,5.74-.81c3.57-.5,5.59-3,5.09-6.56l-8.64-61.47c-.5-3.57-3.13-5.41-6.7-4.91Z"/><path class="cls-2" d="M342.24,232.43l-9.19-65.35c-2-14,6.95-24.88,22.16-27S382,146,384,159.93l9.19,65.34c2,14.12-6.94,25-22.15,27.17S344.22,246.55,342.24,232.43ZM373.59,228l-9.16-65.19c-.5-3.57-3.14-5.41-6.71-4.91s-5.59,3-5.09,6.57l9.16,65.19c.5,3.57,3.14,5.41,6.71,4.91S374.09,231.59,373.59,228Z"/><rect class="cls-1" x="221.48" y="303.31" width="321.54" height="188.52" transform="translate(24.86 -22.49) rotate(3.48)"/><path class="cls-2" d="M264.44,335.44l37.23,2.27-1.09,18-17.52-1.06-1.66,27.22,15.8,1-1.06,17.52-15.81-1-1.75,28.78,17.52,1.07-1.09,18L257.77,445Zm17.55-20,21.58,1.32-11.31,15.63-19.08-1.16Z"/><path class="cls-2" d="M319,392l-8.82-53.77,21.12,1.29,3.7,34.61-.41,6.73,2.66.17.41-6.74,7.88-33.9,20.18,1.23L350.2,394.84,359,451.12l-21-1.28-4-35.41.49-8.14-2.66-.16-.49,8.13L323,448.93l-20.18-1.23Z"/><path class="cls-2" d="M375.11,342.18l19.71,1.2-6.67,109.51-19.71-1.2Z"/><path class="cls-2" d="M414.71,362.65,403.44,362l1.1-18,42.24,2.57-1.1,18-11.26-.68-5.57,91.52-19.71-1.2Z"/><path class="cls-2" d="M450.07,434.67l4-65.86c.86-14.08,11.76-23,27.09-22.06s25.08,11.11,24.23,25.18l-4,65.87C500.52,452,489.61,461,474.28,460S449.2,448.91,450.07,434.67Zm31.6,1.93,4-65.71c.22-3.6-2-5.93-5.59-6.15s-6.08,1.83-6.3,5.43l-4,65.7c-.22,3.6,2,5.94,5.59,6.16S481.46,440.2,481.67,436.6Z"/><circle cx="440.58" cy="252.78" r="74.79"/><path class="cls-2" d="M419.36,215.78l-26.2,53.86,15.22,4.47,5.56-12.62,9.62,2.83L421.66,278l15.22,4.46,7.33-59.4Zm-.79,35.2,8.54-19.39,1,.29-2.93,21Z"/><polygon class="cls-2" points="460.48 277.53 473.91 231.8 458.13 227.16 441.49 283.83 447.07 285.47 447.07 285.47 471.36 292.6 474.57 281.67 460.48 277.53"/></svg>