<?xml version="1.0" encoding="utf-8"?>
<!-- Generator: Adobe Illustrator 26.3.1, SVG Export Plug-In . SVG Version: 6.00 Build 0)  -->
<svg version="1.1" xmlns="http://www.w3.org/2000/svg" x="0px" y="0px"
     viewBox="0 0 512 512" style="enable-background:new 0 0 512 512;" xml:space="preserve">
<style type="text/css">
	.st0{fill:#7143FF;}
	.st1{fill:#FFFFFF;}
</style>
    <g id="Capa_2">
	<rect class="st0" width="512" height="512"/>
</g>
    <g id="Capa_1">
	
		<rect x="47.7" y="100.4" transform="matrix(0.9903 -0.1392 0.1392 0.9903 -23.3557 30.8843)" class="st1"
              width="322.9" height="164"/>
        <path d="M76.6,152.9l30.4-4.3l13.7,61.9l2.1,15l2.4-0.3l-2.1-15l-3.9-63.3l29.8-4.2l13.3,94.6l-17,2.4l-9.6-67.9l-1-7.7l-2.3,0.3
		l0.8,7.7l3.7,68.7l-21.8,3l-15.5-67.2l-1.2-7.7l-2.3,0.3l1.2,7.7l9.6,67.9l-17,2.4L76.6,152.9z"/>
        <path d="M160.1,141.1l17-2.3l13.3,94.5l-17,2.4L160.1,141.1z"/>
        <path d="M188.2,137.2l32.1-4.5l2.2,15.6l-15.1,2.1l3.3,23.5l13.7-1.9l2.2,15.1l-13.7,1.9l3.5,24.9l15.1-2.1l2.2,15.6l-32.1,4.5
		L188.2,137.2z"/>
        <path d="M229.9,131.3l23.1-3.2c12.7-1.8,22.2,4.9,23.8,16.4l7.8,55.6c1.7,11.6-5.7,20.6-18.4,22.4l-23.1,3.2L229.9,131.3z
		 M249,144.4l8.9,63.5l5-0.7c3.1-0.4,4.9-2.6,4.4-5.7l-7.5-53.5c-0.4-3.1-2.7-4.7-5.8-4.3L249,144.4z"/>
        <path d="M294.8,199.3l-8-56.9c-1.7-12.2,6.1-21.7,19.3-23.5c13.2-1.8,23.3,5.1,25.1,17.3l8,56.8c1.7,12.3-6,21.7-19.2,23.7
		S296.5,211.6,294.8,199.3z M322.1,195.5l-8-56.7c-0.4-3.1-2.7-4.7-5.8-4.3c-3.1,0.4-4.9,2.6-4.4,5.7l8,56.7
		c0.4,3.1,2.7,4.7,5.8,4.3C320.8,200.8,322.5,198.5,322.1,195.5z"/>

        <rect x="247.6" y="203.1" transform="matrix(6.069745e-02 -0.9982 0.9982 6.069745e-02 -32.7081 651.0999)"
              class="st1" width="164" height="279.7"/>
        <path d="M227.1,288.9l32.4,2l-1,15.7l-15.2-1l-1.5,23.7l13.7,0.9l-1,15.2l-13.7-0.9l-1.6,25.1l15.2,1l-1,15.7l-32.4-1.9
		L227.1,288.9z M242.4,271.5l18.8,1.1l-9.8,13.6l-16.6-1L242.4,271.5z"/>
        <path d="M274.6,338.2l-7.7-46.8l18.4,1.1l3.2,30.1l-0.3,5.8l2.3,0.2l0.3-5.8l6.9-29.5l17.6,1l-13.6,46.3l7.7,49l-18.3-1.1
		l-3.5-30.8l0.4-7l-2.3-0.2l-0.4,7l-7.2,30.2l-17.6-1L274.6,338.2z"/>
        <path d="M323.4,294.8l17.1,1l-5.8,95.2l-17.1-1L323.4,294.8z"/>
        <path d="M357.9,312.6l-9.8-0.5l1-15.7l36.7,2.3l-1,15.7l-9.8-0.6l-4.9,79.6l-17.1-1L357.9,312.6z"/>
        <path d="M388.6,375.2l3.5-57.3c0.8-12.3,10.3-20,23.6-19.2c13.3,0.8,21.8,9.7,21,21.9l-3.5,57.3c-0.8,12.4-10.3,20.2-23.6,19.3
		C396.3,396.3,387.9,387.6,388.6,375.2z M416,377l3.5-57.1c0.2-3.1-1.7-5.1-4.9-5.3c-3.1-0.2-5.3,1.6-5.5,4.7l-3.5,57.1
		c-0.2,3.1,1.7,5.1,4.9,5.4C413.7,382,415.9,380.1,416,377z"/>
        <circle cx="380.4" cy="217" r="65.1"/>
        <path class="st1" d="M361.9,184.8l-22.8,46.9l13.2,3.9l4.9-11l8.4,2.4l-1.7,11.9l13.2,3.9l6.3-51.7L361.9,184.8z M361.2,215.4
		l7.4-16.9l0.9,0.3l-2.5,18.3L361.2,215.4z"/>
        <polygon class="st1"
                 points="397.7,238.6 409.3,198.8 395.6,194.7 381.2,244 386,245.4 386,245.4 407.1,251.7 409.9,242.1 	"/>
</g>
</svg>
